{
	"asset":{
		"generator":"Khronos glTF Blender I/O v3.6.27",
		"version":"2.0"
	},
	"scene":0,
	"scenes":[
		{
			"name":"Scene",
			"nodes":[
				0
			]
		}
	],
	"nodes":[
		{
			"mesh":0,
			"name":"SignText",
			"rotation":[
				0,
				0.7071068286895752,
				0.7071068286895752,
				3.090862321641907e-08
			],
			"translation":[
				12.71412467956543,
				25.85491943359375,
				15.938192367553711
			]
		}
	],
	"meshes":[
		{
			"name":"Text",
			"primitives":[
				{
					"attributes":{
						"POSITION":0,
						"NORMAL":1,
						"TEXCOORD_0":2
					},
					"indices":3
				}
			]
		}
	],
	"accessors":[
		{
			"bufferView":0,
			"componentType":5126,
			"count":10270,
			"max":[
				81.26338195800781,
				12.649718284606934,
				93.5702133178711
			],
			"min":[
				-199.36611938476562,
				-9.37441635131836,
				-209.9503631591797
			],
			"type":"VEC3"
		},
		{
			"bufferView":1,
			"componentType":5126,
			"count":10270,
			"type":"VEC3"
		},
		{
			"bufferView":2,
			"componentType":5126,
			"count":10270,
			"type":"VEC2"
		},
		{
			"bufferView":3,
			"componentType":5123,
			"count":23988,
			"type":"SCALAR"
		}
	],
	"bufferViews":[
		{
			"buffer":0,
			"byteLength":123240,
			"byteOffset":0,
			"target":34962
		},
		{
			"buffer":0,
			"byteLength":123240,
			"byteOffset":123240,
			"target":34962
		},
		{
			"buffer":0,
			"byteLength":82160,
			"byteOffset":246480,
			"target":34962
		},
		{
			"buffer":0,
			"byteLength":47976,
			"byteOffset":328640,
			"target":34963
		}
	],
	"buffers":[
		{
			"byteLength":376616,
			"uri":"base_model-nofood_copy.bin"
		}
	]
}
