{
	"asset":{
		"copyright":"waltah",
		"generator":"Khronos glTF Blender I/O v3.6.27",
		"version":"2.0"
	},
	"scene":0,
	"scenes":[
		{
			"name":"Scene",
			"nodes":[
				0
			]
		}
	],
	"nodes":[
		{
			"mesh":0,
			"name":"SignText",
			"rotation":[
				0,
				0.7071068286895752,
				0.7071068286895752,
				3.090862321641907e-08
			],
			"scale":[
				5.801851272583008,
				4.437483787536621,
				1
			],
			"translation":[
				15.126656532287598,
				45.57521438598633,
				22.563091278076172
			]
		}
	],
	"meshes":[
		{
			"name":"Text",
			"primitives":[
				{
					"attributes":{
						"POSITION":0,
						"NORMAL":1,
						"TEXCOORD_0":2
					},
					"indices":3
				}
			]
		}
	],
	"accessors":[
		{
			"bufferView":0,
			"componentType":5126,
			"count":65561,
			"max":[
				35.20596694946289,
				7.165262699127197,
				235.1936798095703
			],
			"min":[
				-86.37196350097656,
				-5.310011863708496,
				-527.7213134765625
			],
			"type":"VEC3"
		},
		{
			"bufferView":1,
			"componentType":5126,
			"count":65561,
			"type":"VEC3"
		},
		{
			"bufferView":2,
			"componentType":5126,
			"count":65561,
			"type":"VEC2"
		},
		{
			"bufferView":3,
			"componentType":5125,
			"count":106932,
			"type":"SCALAR"
		}
	],
	"bufferViews":[
		{
			"buffer":0,
			"byteLength":786732,
			"byteOffset":0,
			"target":34962
		},
		{
			"buffer":0,
			"byteLength":786732,
			"byteOffset":786732,
			"target":34962
		},
		{
			"buffer":0,
			"byteLength":524488,
			"byteOffset":1573464,
			"target":34962
		},
		{
			"buffer":0,
			"byteLength":427728,
			"byteOffset":2097952,
			"target":34963
		}
	],
	"buffers":[
		{
			"byteLength":2525680,
			"uri":"base_model-nofood.bin"
		}
	]
}
