{
	"asset":{
		"generator":"Khronos glTF Blender I/O v3.6.27",
		"version":"2.0"
	},
	"scene":0,
	"scenes":[
		{
			"name":"Scene",
			"nodes":[
				0
			]
		}
	],
	"nodes":[
		{
			"mesh":0,
			"name":"Cube",
			"translation":[
				6.696086406707764,
				7.723127365112305,
				8.937263488769531
			]
		}
	],
	"meshes":[
		{
			"name":"Cube",
			"primitives":[
				{
					"attributes":{
						"POSITION":0,
						"NORMAL":1,
						"TEXCOORD_0":2
					},
					"indices":3
				}
			]
		}
	],
	"accessors":[
		{
			"bufferView":0,
			"componentType":5126,
			"count":10290,
			"max":[
				205.38414001464844,
				111.7020034790039,
				19.65064811706543
			],
			"min":[
				-75.2453384399414,
				-191.8185577392578,
				-2.373488664627075
			],
			"type":"VEC3"
		},
		{
			"bufferView":1,
			"componentType":5126,
			"count":10290,
			"type":"VEC3"
		},
		{
			"bufferView":2,
			"componentType":5126,
			"count":10290,
			"type":"VEC2"
		},
		{
			"bufferView":3,
			"componentType":5123,
			"count":23988,
			"type":"SCALAR"
		}
	],
	"bufferViews":[
		{
			"buffer":0,
			"byteLength":123480,
			"byteOffset":0,
			"target":34962
		},
		{
			"buffer":0,
			"byteLength":123480,
			"byteOffset":123480,
			"target":34962
		},
		{
			"buffer":0,
			"byteLength":82320,
			"byteOffset":246960,
			"target":34962
		},
		{
			"buffer":0,
			"byteLength":47976,
			"byteOffset":329280,
			"target":34963
		}
	],
	"buffers":[
		{
			"byteLength":377256,
			"uri":"base_model-nofood_copy_copy.bin"
		}
	]
}
