{
	"asset":{
		"generator":"Khronos glTF Blender I/O v3.6.28",
		"version":"2.0"
	},
	"scene":0,
	"scenes":[
		{
			"name":"Scene",
			"nodes":[
				0
			]
		}
	],
	"nodes":[
		{
			"mesh":0,
			"name":"Cylinder.003",
			"translation":[
				0.6665301322937012,
				0.03298341482877731,
				-0.15400952100753784
			]
		}
	],
	"meshes":[
		{
			"name":"Cylinder.002",
			"primitives":[
				{
					"attributes":{
						"POSITION":0,
						"NORMAL":1,
						"TEXCOORD_0":2
					},
					"indices":3
				}
			]
		}
	],
	"accessors":[
		{
			"bufferView":0,
			"componentType":5126,
			"count":300287,
			"max":[
				0.41529688239097595,
				0.01077608484774828,
				1.217832088470459
			],
			"min":[
				-1.758523941040039,
				-0.06361120939254761,
				-0.9286615252494812
			],
			"type":"VEC3"
		},
		{
			"bufferView":1,
			"componentType":5126,
			"count":300287,
			"type":"VEC3"
		},
		{
			"bufferView":2,
			"componentType":5126,
			"count":300287,
			"type":"VEC2"
		},
		{
			"bufferView":3,
			"componentType":5125,
			"count":338484,
			"type":"SCALAR"
		}
	],
	"bufferViews":[
		{
			"buffer":0,
			"byteLength":3603444,
			"byteOffset":0,
			"target":34962
		},
		{
			"buffer":0,
			"byteLength":3603444,
			"byteOffset":3603444,
			"target":34962
		},
		{
			"buffer":0,
			"byteLength":2402296,
			"byteOffset":7206888,
			"target":34962
		},
		{
			"buffer":0,
			"byteLength":1353936,
			"byteOffset":9609184,
			"target":34963
		}
	],
	"buffers":[
		{
			"byteLength":10963120,
			"uri":"pizza.bin"
		}
	]
}
