{
	"asset":{
		"generator":"Khronos glTF Blender I/O v3.6.28",
		"version":"2.0"
	},
	"scene":0,
	"scenes":[
		{
			"name":"Scene",
			"nodes":[
				0
			]
		}
	],
	"nodes":[
		{
			"mesh":0,
			"name":"Cylinder.003",
			"scale":[
				0.0776553675532341,
				0.004279458895325661,
				0.0776553675532341
			],
			"translation":[
				0.6665301322937012,
				0.03298341482877731,
				-0.15400952100753784
			]
		}
	],
	"meshes":[
		{
			"name":"Cylinder.002",
			"primitives":[
				{
					"attributes":{
						"POSITION":0,
						"NORMAL":1,
						"TEXCOORD_0":2
					},
					"indices":3
				}
			]
		}
	],
	"accessors":[
		{
			"bufferView":0,
			"componentType":5126,
			"count":287394,
			"max":[
				5.34794807434082,
				2.5180952548980713,
				15.682522773742676
			],
			"min":[
				-22.645233154296875,
				-14.864311218261719,
				-11.958755493164062
			],
			"type":"VEC3"
		},
		{
			"bufferView":1,
			"componentType":5126,
			"count":287394,
			"type":"VEC3"
		},
		{
			"bufferView":2,
			"componentType":5126,
			"count":287394,
			"type":"VEC2"
		},
		{
			"bufferView":3,
			"componentType":5125,
			"count":338484,
			"type":"SCALAR"
		}
	],
	"bufferViews":[
		{
			"buffer":0,
			"byteLength":3448728,
			"byteOffset":0,
			"target":34962
		},
		{
			"buffer":0,
			"byteLength":3448728,
			"byteOffset":3448728,
			"target":34962
		},
		{
			"buffer":0,
			"byteLength":2299152,
			"byteOffset":6897456,
			"target":34962
		},
		{
			"buffer":0,
			"byteLength":1353936,
			"byteOffset":9196608,
			"target":34963
		}
	],
	"buffers":[
		{
			"byteLength":10550544,
			"uri":"pizza.bin"
		}
	]
}
