{
	"asset":{
		"generator":"Khronos glTF Blender I/O v3.6.27",
		"version":"2.0"
	},
	"scene":0,
	"scenes":[
		{
			"name":"Scene",
			"nodes":[
				0
			]
		}
	],
	"nodes":[
		{
			"mesh":0,
			"name":"Plane"
		}
	],
	"meshes":[
		{
			"name":"Plane",
			"primitives":[
				{
					"attributes":{
						"POSITION":0
					},
					"indices":1
				}
			]
		}
	],
	"accessors":[
		{
			"bufferView":0,
			"componentType":5126,
			"count":30296,
			"max":[
				1.8709874153137207,
				8.742071151733398,
				4.954562187194824
			],
			"min":[
				-2.120549201965332,
				0,
				-2.1369881629943848
			],
			"type":"VEC3"
		},
		{
			"bufferView":1,
			"componentType":5123,
			"count":179766,
			"type":"SCALAR"
		}
	],
	"bufferViews":[
		{
			"buffer":0,
			"byteLength":363552,
			"byteOffset":0,
			"target":34962
		},
		{
			"buffer":0,
			"byteLength":359532,
			"byteOffset":363552,
			"target":34963
		}
	],
	"buffers":[
		{
			"byteLength":723084,
			"uri":"fries.bin"
		}
	]
}
