{
	"asset":{
		"generator":"Khronos glTF Blender I/O v3.6.27",
		"version":"2.0"
	},
	"scene":0,
	"scenes":[
		{
			"name":"Scene",
			"nodes":[
				0,
				1
			]
		}
	],
	"nodes":[
		{
			"mesh":0,
			"name":"Cylinder.001",
			"scale":[
				1,
				1,
				0.02146834321320057
			],
			"translation":[
				0,
				0,
				0.2874014973640442
			]
		},
		{
			"mesh":1,
			"name":"Cylinder.002",
			"scale":[
				0.8680999875068665,
				0.8680999875068665,
				0.02146834321320057
			],
			"translation":[
				0,
				0,
				0.3297750949859619
			]
		}
	],
	"meshes":[
		{
			"name":"Cylinder.002",
			"primitives":[
				{
					"attributes":{
						"POSITION":0,
						"NORMAL":1,
						"TEXCOORD_0":2
					},
					"indices":3
				}
			]
		},
		{
			"name":"Cylinder.004",
			"primitives":[
				{
					"attributes":{
						"POSITION":4,
						"NORMAL":5,
						"TEXCOORD_0":6
					},
					"indices":7
				}
			]
		}
	],
	"accessors":[
		{
			"bufferView":0,
			"componentType":5126,
			"count":260,
			"max":[
				1,
				1,
				1
			],
			"min":[
				-1,
				-1,
				-1
			],
			"type":"VEC3"
		},
		{
			"bufferView":1,
			"componentType":5126,
			"count":260,
			"type":"VEC3"
		},
		{
			"bufferView":2,
			"componentType":5126,
			"count":260,
			"type":"VEC2"
		},
		{
			"bufferView":3,
			"componentType":5123,
			"count":390,
			"type":"SCALAR"
		},
		{
			"bufferView":4,
			"componentType":5126,
			"count":384,
			"max":[
				1.1506212949752808,
				1.1506214141845703,
				1
			],
			"min":[
				-1.1506214141845703,
				-1.1506214141845703,
				-1.0000003576278687
			],
			"type":"VEC3"
		},
		{
			"bufferView":5,
			"componentType":5126,
			"count":384,
			"type":"VEC3"
		},
		{
			"bufferView":6,
			"componentType":5126,
			"count":384,
			"type":"VEC2"
		},
		{
			"bufferView":7,
			"componentType":5123,
			"count":756,
			"type":"SCALAR"
		}
	],
	"bufferViews":[
		{
			"buffer":0,
			"byteLength":3120,
			"byteOffset":0,
			"target":34962
		},
		{
			"buffer":0,
			"byteLength":3120,
			"byteOffset":3120,
			"target":34962
		},
		{
			"buffer":0,
			"byteLength":2080,
			"byteOffset":6240,
			"target":34962
		},
		{
			"buffer":0,
			"byteLength":780,
			"byteOffset":8320,
			"target":34963
		},
		{
			"buffer":0,
			"byteLength":4608,
			"byteOffset":9100,
			"target":34962
		},
		{
			"buffer":0,
			"byteLength":4608,
			"byteOffset":13708,
			"target":34962
		},
		{
			"buffer":0,
			"byteLength":3072,
			"byteOffset":18316,
			"target":34962
		},
		{
			"buffer":0,
			"byteLength":1512,
			"byteOffset":21388,
			"target":34963
		}
	],
	"buffers":[
		{
			"byteLength":22900,
			"uri":"dish.bin"
		}
	]
}
