{
	"asset":{
		"generator":"Khronos glTF Blender I/O v3.6.28",
		"version":"2.0"
	},
	"scene":0,
	"scenes":[
		{
			"name":"Scene",
			"nodes":[
				0,
				1,
				2,
				3,
				4,
				5,
				6,
				7
			]
		}
	],
	"nodes":[
		{
			"name":"Cube",
			"translation":[
				0,
				1.0060667991638184,
				0
			]
		},
		{
			"mesh":0,
			"name":"bottom bun",
			"translation":[
				0,
				-0.15291786193847656,
				0
			]
		},
		{
			"mesh":1,
			"name":"top bun",
			"translation":[
				0,
				0.11149156093597412,
				0
			]
		},
		{
			"mesh":2,
			"name":"meat",
			"rotation":[
				0,
				1,
				0,
				0
			],
			"scale":[
				-1,
				-0.042311787605285645,
				-1
			],
			"translation":[
				-0.021963566541671753,
				0.47382742166519165,
				-0.2886064052581787
			]
		},
		{
			"mesh":3,
			"name":"cheese",
			"rotation":[
				0,
				1,
				0,
				0
			],
			"scale":[
				-1,
				-0.023877829313278198,
				-1
			],
			"translation":[
				0.011286227963864803,
				0.5182107090950012,
				0.026197969913482666
			]
		},
		{
			"mesh":4,
			"name":"Cylinder",
			"rotation":[
				0,
				1,
				0,
				0
			],
			"scale":[
				-0.9999999403953552,
				-0.05672251805663109,
				-0.9999999403953552
			],
			"translation":[
				-0.9170854091644287,
				1.3590822219848633,
				-0.6402395963668823
			]
		},
		{
			"mesh":5,
			"name":"Cylinder.001",
			"rotation":[
				-0.020335497334599495,
				-0.9779688715934753,
				0.10134034603834152,
				0.18136560916900635
			],
			"scale":[
				-1,
				-0.05672252178192139,
				-1
			],
			"translation":[
				0.35934650897979736,
				0.6607309579849243,
				0.35136401653289795
			]
		},
		{
			"mesh":6,
			"name":"Cube.001",
			"rotation":[
				0,
				1,
				0,
				0
			],
			"scale":[
				-1.508502721786499,
				-0.012508024461567402,
				-1.508502721786499
			],
			"translation":[
				2.068265438079834,
				-0.3206980228424072,
				0.08288097381591797
			]
		}
	],
	"materials":[
		{
			"doubleSided":true,
			"name":"Material.005",
			"pbrMetallicRoughness":{
				"baseColorTexture":{
					"index":0
				},
				"metallicFactor":0,
				"roughnessFactor":0.5
			}
		},
		{
			"doubleSided":true,
			"name":"Material",
			"pbrMetallicRoughness":{
				"baseColorTexture":{
					"index":1
				},
				"metallicFactor":0,
				"roughnessFactor":0.5
			}
		},
		{
			"doubleSided":true,
			"name":"Material.004",
			"pbrMetallicRoughness":{
				"baseColorTexture":{
					"index":2
				},
				"metallicFactor":0,
				"roughnessFactor":0.5
			}
		},
		{
			"doubleSided":true,
			"name":"Material.003",
			"pbrMetallicRoughness":{
				"baseColorTexture":{
					"index":3
				},
				"metallicFactor":0,
				"roughnessFactor":0.5
			}
		},
		{
			"doubleSided":true,
			"name":"Material.001",
			"pbrMetallicRoughness":{
				"baseColorTexture":{
					"index":4
				},
				"metallicFactor":0,
				"roughnessFactor":0.5
			}
		},
		{
			"doubleSided":true,
			"name":"Material.006",
			"pbrMetallicRoughness":{
				"baseColorTexture":{
					"index":5
				},
				"metallicFactor":0,
				"roughnessFactor":0.5
			}
		},
		{
			"doubleSided":true,
			"name":"Material.007",
			"pbrMetallicRoughness":{
				"baseColorTexture":{
					"index":6
				},
				"metallicFactor":0,
				"roughnessFactor":0.5
			}
		}
	],
	"meshes":[
		{
			"name":"Cube.001",
			"primitives":[
				{
					"attributes":{
						"POSITION":0,
						"NORMAL":1,
						"TEXCOORD_0":2
					},
					"indices":3,
					"material":0
				}
			]
		},
		{
			"name":"Cube.002",
			"primitives":[
				{
					"attributes":{
						"POSITION":4,
						"NORMAL":5,
						"TEXCOORD_0":6
					},
					"indices":7,
					"material":1
				}
			]
		},
		{
			"name":"Cylinder",
			"primitives":[
				{
					"attributes":{
						"POSITION":8,
						"NORMAL":9,
						"TEXCOORD_0":10
					},
					"indices":11,
					"material":2
				}
			]
		},
		{
			"name":"Cube.004",
			"primitives":[
				{
					"attributes":{
						"POSITION":12,
						"NORMAL":13,
						"TEXCOORD_0":14
					},
					"indices":15,
					"material":3
				}
			]
		},
		{
			"name":"Cylinder.003",
			"primitives":[
				{
					"attributes":{
						"POSITION":16,
						"NORMAL":17,
						"TEXCOORD_0":18
					},
					"indices":19,
					"material":4
				}
			]
		},
		{
			"name":"Cylinder.004",
			"primitives":[
				{
					"attributes":{
						"POSITION":20,
						"NORMAL":21,
						"TEXCOORD_0":22
					},
					"indices":23,
					"material":5
				}
			]
		},
		{
			"name":"Cube.003",
			"primitives":[
				{
					"attributes":{
						"POSITION":24,
						"NORMAL":25,
						"TEXCOORD_0":26
					},
					"indices":27,
					"material":6
				}
			]
		}
	],
	"textures":[
		{
			"sampler":0,
			"source":0
		},
		{
			"sampler":1,
			"source":0
		},
		{
			"sampler":0,
			"source":0
		},
		{
			"sampler":0,
			"source":0
		},
		{
			"sampler":0,
			"source":0
		},
		{
			"sampler":0,
			"source":0
		},
		{
			"sampler":0,
			"source":0
		}
	],
	"images":[
		{
			"mimeType":"image/png",
			"name":"Burger",
			"uri":"Burger.png"
		}
	],
	"accessors":[
		{
			"bufferView":0,
			"componentType":5126,
			"count":293,
			"max":[
				0.9317318797111511,
				0.5779744982719421,
				0.8244392275810242
			],
			"min":[
				-0.9143068790435791,
				0.1453520655632019,
				-0.9040628671646118
			],
			"type":"VEC3"
		},
		{
			"bufferView":1,
			"componentType":5126,
			"count":293,
			"type":"VEC3"
		},
		{
			"bufferView":2,
			"componentType":5126,
			"count":293,
			"type":"VEC2"
		},
		{
			"bufferView":3,
			"componentType":5123,
			"count":504,
			"type":"SCALAR"
		},
		{
			"bufferView":4,
			"componentType":5126,
			"count":3744,
			"max":[
				0.8863438367843628,
				1.1071445941925049,
				0.7581781148910522
			],
			"min":[
				-0.8475082516670227,
				0.5601284503936768,
				-0.8466020822525024
			],
			"type":"VEC3"
		},
		{
			"bufferView":5,
			"componentType":5126,
			"count":3744,
			"type":"VEC3"
		},
		{
			"bufferView":6,
			"componentType":5126,
			"count":3744,
			"type":"VEC2"
		},
		{
			"bufferView":7,
			"componentType":5123,
			"count":5616,
			"type":"SCALAR"
		},
		{
			"bufferView":8,
			"componentType":5126,
			"count":318,
			"max":[
				0.9256688356399536,
				1.9050039052963257,
				1.092126727104187
			],
			"min":[
				-0.9015483260154724,
				-0.829748272895813,
				-0.5998549461364746
			],
			"type":"VEC3"
		},
		{
			"bufferView":9,
			"componentType":5126,
			"count":318,
			"type":"VEC3"
		},
		{
			"bufferView":10,
			"componentType":5126,
			"count":318,
			"type":"VEC2"
		},
		{
			"bufferView":11,
			"componentType":5123,
			"count":564,
			"type":"SCALAR"
		},
		{
			"bufferView":12,
			"componentType":5126,
			"count":192,
			"max":[
				0.8945032954216003,
				4.990870475769043,
				0.8501486778259277
			],
			"min":[
				-0.8929534554481506,
				-1.1299898624420166,
				-0.811109185218811
			],
			"type":"VEC3"
		},
		{
			"bufferView":13,
			"componentType":5126,
			"count":192,
			"type":"VEC3"
		},
		{
			"bufferView":14,
			"componentType":5126,
			"count":192,
			"type":"VEC2"
		},
		{
			"bufferView":15,
			"componentType":5123,
			"count":288,
			"type":"SCALAR"
		},
		{
			"bufferView":16,
			"componentType":5126,
			"count":192,
			"max":[
				1.1782971620559692,
				13.258569717407227,
				0.639684796333313
			],
			"min":[
				0.2699487507343292,
				11.823637008666992,
				-0.2661661207675934
			],
			"type":"VEC3"
		},
		{
			"bufferView":17,
			"componentType":5126,
			"count":192,
			"type":"VEC3"
		},
		{
			"bufferView":18,
			"componentType":5126,
			"count":192,
			"type":"VEC2"
		},
		{
			"bufferView":19,
			"componentType":5123,
			"count":372,
			"type":"SCALAR"
		},
		{
			"bufferView":20,
			"componentType":5126,
			"count":192,
			"max":[
				0.42187410593032837,
				2.1476657390594482,
				0.42288002371788025
			],
			"min":[
				-0.43818387389183044,
				-0.7154221534729004,
				-0.44527915120124817
			],
			"type":"VEC3"
		},
		{
			"bufferView":21,
			"componentType":5126,
			"count":192,
			"type":"VEC3"
		},
		{
			"bufferView":22,
			"componentType":5126,
			"count":192,
			"type":"VEC2"
		},
		{
			"bufferView":23,
			"componentType":5123,
			"count":372,
			"type":"SCALAR"
		},
		{
			"bufferView":24,
			"componentType":5126,
			"count":228,
			"max":[
				-0.5474987626075745,
				-51.664058685302734,
				0.5058841109275818
			],
			"min":[
				-2.013817310333252,
				-103.57693481445312,
				-0.8423428535461426
			],
			"type":"VEC3"
		},
		{
			"bufferView":25,
			"componentType":5126,
			"count":228,
			"type":"VEC3"
		},
		{
			"bufferView":26,
			"componentType":5126,
			"count":228,
			"type":"VEC2"
		},
		{
			"bufferView":27,
			"componentType":5123,
			"count":960,
			"type":"SCALAR"
		}
	],
	"bufferViews":[
		{
			"buffer":0,
			"byteLength":3516,
			"byteOffset":0,
			"target":34962
		},
		{
			"buffer":0,
			"byteLength":3516,
			"byteOffset":3516,
			"target":34962
		},
		{
			"buffer":0,
			"byteLength":2344,
			"byteOffset":7032,
			"target":34962
		},
		{
			"buffer":0,
			"byteLength":1008,
			"byteOffset":9376,
			"target":34963
		},
		{
			"buffer":0,
			"byteLength":44928,
			"byteOffset":10384,
			"target":34962
		},
		{
			"buffer":0,
			"byteLength":44928,
			"byteOffset":55312,
			"target":34962
		},
		{
			"buffer":0,
			"byteLength":29952,
			"byteOffset":100240,
			"target":34962
		},
		{
			"buffer":0,
			"byteLength":11232,
			"byteOffset":130192,
			"target":34963
		},
		{
			"buffer":0,
			"byteLength":3816,
			"byteOffset":141424,
			"target":34962
		},
		{
			"buffer":0,
			"byteLength":3816,
			"byteOffset":145240,
			"target":34962
		},
		{
			"buffer":0,
			"byteLength":2544,
			"byteOffset":149056,
			"target":34962
		},
		{
			"buffer":0,
			"byteLength":1128,
			"byteOffset":151600,
			"target":34963
		},
		{
			"buffer":0,
			"byteLength":2304,
			"byteOffset":152728,
			"target":34962
		},
		{
			"buffer":0,
			"byteLength":2304,
			"byteOffset":155032,
			"target":34962
		},
		{
			"buffer":0,
			"byteLength":1536,
			"byteOffset":157336,
			"target":34962
		},
		{
			"buffer":0,
			"byteLength":576,
			"byteOffset":158872,
			"target":34963
		},
		{
			"buffer":0,
			"byteLength":2304,
			"byteOffset":159448,
			"target":34962
		},
		{
			"buffer":0,
			"byteLength":2304,
			"byteOffset":161752,
			"target":34962
		},
		{
			"buffer":0,
			"byteLength":1536,
			"byteOffset":164056,
			"target":34962
		},
		{
			"buffer":0,
			"byteLength":744,
			"byteOffset":165592,
			"target":34963
		},
		{
			"buffer":0,
			"byteLength":2304,
			"byteOffset":166336,
			"target":34962
		},
		{
			"buffer":0,
			"byteLength":2304,
			"byteOffset":168640,
			"target":34962
		},
		{
			"buffer":0,
			"byteLength":1536,
			"byteOffset":170944,
			"target":34962
		},
		{
			"buffer":0,
			"byteLength":744,
			"byteOffset":172480,
			"target":34963
		},
		{
			"buffer":0,
			"byteLength":2736,
			"byteOffset":173224,
			"target":34962
		},
		{
			"buffer":0,
			"byteLength":2736,
			"byteOffset":175960,
			"target":34962
		},
		{
			"buffer":0,
			"byteLength":1824,
			"byteOffset":178696,
			"target":34962
		},
		{
			"buffer":0,
			"byteLength":1920,
			"byteOffset":180520,
			"target":34963
		}
	],
	"samplers":[
		{
			"magFilter":9729,
			"minFilter":9987
		},
		{
			"magFilter":9729,
			"minFilter":9987,
			"wrapS":33071,
			"wrapT":33071
		}
	],
	"buffers":[
		{
			"byteLength":182440,
			"uri":"burger.bin"
		}
	]
}
