{
	"asset":{
		"generator":"Khronos glTF Blender I/O v3.6.28",
		"version":"2.0"
	},
	"scene":0,
	"scenes":[
		{
			"name":"Scene",
			"nodes":[
				0
			]
		}
	],
	"nodes":[
		{
			"mesh":0,
			"name":"top bun",
			"translation":[
				0,
				0.11149156093597412,
				0
			]
		}
	],
	"meshes":[
		{
			"name":"Cube.002",
			"primitives":[
				{
					"attributes":{
						"POSITION":0,
						"NORMAL":1,
						"TEXCOORD_0":2
					},
					"indices":3
				}
			]
		}
	],
	"accessors":[
		{
			"bufferView":0,
			"componentType":5126,
			"count":5155,
			"max":[
				1.2423620223999023,
				1.1071445941925049,
				0.8763466477394104
			],
			"min":[
				-0.9695835113525391,
				-0.11905735731124878,
				-1.1877955198287964
			],
			"type":"VEC3"
		},
		{
			"bufferView":1,
			"componentType":5126,
			"count":5155,
			"type":"VEC3"
		},
		{
			"bufferView":2,
			"componentType":5126,
			"count":5155,
			"type":"VEC2"
		},
		{
			"bufferView":3,
			"componentType":5123,
			"count":8676,
			"type":"SCALAR"
		}
	],
	"bufferViews":[
		{
			"buffer":0,
			"byteLength":61860,
			"byteOffset":0,
			"target":34962
		},
		{
			"buffer":0,
			"byteLength":61860,
			"byteOffset":61860,
			"target":34962
		},
		{
			"buffer":0,
			"byteLength":41240,
			"byteOffset":123720,
			"target":34962
		},
		{
			"buffer":0,
			"byteLength":17352,
			"byteOffset":164960,
			"target":34963
		}
	],
	"buffers":[
		{
			"byteLength":182312,
			"uri":"burger.bin"
		}
	]
}
