{
	"asset":{
		"generator":"Khronos glTF Blender I/O v3.6.28",
		"version":"2.0"
	},
	"scene":0,
	"scenes":[
		{
			"name":"Scene",
			"nodes":[
				0,
				1
			]
		}
	],
	"nodes":[
		{
			"name":"Plane",
			"rotation":[
				0,
				0,
				-0.7071066498756409,
				0.7071069478988647
			],
			"scale":[
				0.4360964596271515,
				0.4360964596271515,
				0.4360964596271515
			],
			"translation":[
				0,
				2.7138872146606445,
				0
			]
		},
		{
			"mesh":0,
			"name":"Cup",
			"rotation":[
				0,
				0.1144023984670639,
				0,
				0.993434488773346
			],
			"translation":[
				-0.016330495476722717,
				0,
				0.008332021534442902
			]
		}
	],
	"meshes":[
		{
			"name":"Cylinder.002",
			"primitives":[
				{
					"attributes":{
						"POSITION":0,
						"NORMAL":1,
						"TEXCOORD_0":2,
						"TEXCOORD_1":3,
						"TEXCOORD_2":4
					},
					"indices":5
				}
			]
		}
	],
	"accessors":[
		{
			"bufferView":0,
			"componentType":5126,
			"count":2477,
			"max":[
				1.273492455482483,
				1.929535150527954,
				1.2331740856170654
			],
			"min":[
				-1.088439702987671,
				-0.6091472506523132,
				-1.2432647943496704
			],
			"type":"VEC3"
		},
		{
			"bufferView":1,
			"componentType":5126,
			"count":2477,
			"type":"VEC3"
		},
		{
			"bufferView":2,
			"componentType":5126,
			"count":2477,
			"type":"VEC2"
		},
		{
			"bufferView":3,
			"componentType":5126,
			"count":2477,
			"type":"VEC2"
		},
		{
			"bufferView":4,
			"componentType":5126,
			"count":2477,
			"type":"VEC2"
		},
		{
			"bufferView":5,
			"componentType":5123,
			"count":10008,
			"type":"SCALAR"
		}
	],
	"bufferViews":[
		{
			"buffer":0,
			"byteLength":29724,
			"byteOffset":0,
			"target":34962
		},
		{
			"buffer":0,
			"byteLength":29724,
			"byteOffset":29724,
			"target":34962
		},
		{
			"buffer":0,
			"byteLength":19816,
			"byteOffset":59448,
			"target":34962
		},
		{
			"buffer":0,
			"byteLength":19816,
			"byteOffset":79264,
			"target":34962
		},
		{
			"buffer":0,
			"byteLength":19816,
			"byteOffset":99080,
			"target":34962
		},
		{
			"buffer":0,
			"byteLength":20016,
			"byteOffset":118896,
			"target":34963
		}
	],
	"buffers":[
		{
			"byteLength":138912,
			"uri":"ice_cream.bin"
		}
	]
}
