{
	"asset":{
		"generator":"Khronos glTF Blender I/O v3.6.28",
		"version":"2.0"
	},
	"scene":0,
	"scenes":[
		{
			"name":"Scene",
			"nodes":[
				0
			]
		}
	],
	"nodes":[
		{
			"mesh":0,
			"name":"Ketchup",
			"translation":[
				0.02893722429871559,
				0.7475815415382385,
				-0.23485353589057922
			]
		}
	],
	"meshes":[
		{
			"name":"Sphere.002",
			"primitives":[
				{
					"attributes":{
						"POSITION":0,
						"NORMAL":1,
						"TEXCOORD_0":2
					},
					"indices":3
				}
			]
		}
	],
	"accessors":[
		{
			"bufferView":0,
			"componentType":5126,
			"count":7033,
			"max":[
				0.8855066895484924,
				0.1617814004421234,
				2.091179132461548
			],
			"min":[
				-0.9098285436630249,
				-1.6434143781661987,
				-1.9602173566818237
			],
			"type":"VEC3"
		},
		{
			"bufferView":1,
			"componentType":5126,
			"count":7033,
			"type":"VEC3"
		},
		{
			"bufferView":2,
			"componentType":5126,
			"count":7033,
			"type":"VEC2"
		},
		{
			"bufferView":3,
			"componentType":5123,
			"count":38808,
			"type":"SCALAR"
		}
	],
	"bufferViews":[
		{
			"buffer":0,
			"byteLength":84396,
			"byteOffset":0,
			"target":34962
		},
		{
			"buffer":0,
			"byteLength":84396,
			"byteOffset":84396,
			"target":34962
		},
		{
			"buffer":0,
			"byteLength":56264,
			"byteOffset":168792,
			"target":34962
		},
		{
			"buffer":0,
			"byteLength":77616,
			"byteOffset":225056,
			"target":34963
		}
	],
	"buffers":[
		{
			"byteLength":302672,
			"uri":"Hotdog.bin"
		}
	]
}
