{
	"asset":{
		"generator":"Khronos glTF Blender I/O v3.6.28",
		"version":"2.0"
	},
	"scene":0,
	"scenes":[
		{
			"name":"Scene",
			"nodes":[
				0
			]
		}
	],
	"nodes":[
		{
			"mesh":0,
			"name":"Plane"
		}
	],
	"images": [
    {
      "uri": "chip.png"
    },
    {
      "uri": "logo2.png"
    }
	],
	"meshes":[
		{
			"name":"Plane",
			"primitives":[
				{
					"attributes":{
						"COLOR_0":0,
						"POSITION":1,
						"NORMAL":2,
						"TEXCOORD_0":3
					},
					"indices":4
				}
			]
		}
	],
	"accessors":[
		{
			"bufferView":0,
			"componentType":5123,
			"count":107337,
			"normalized":true,
			"type":"VEC4"
		},
		{
			"bufferView":1,
			"componentType":5126,
			"count":107337,
			"max":[
				1.8709874153137207,
				8.742071151733398,
				4.954562187194824
			],
			"min":[
				-2.120549201965332,
				0,
				-2.1369881629943848
			],
			"type":"VEC3"
		},
		{
			"bufferView":2,
			"componentType":5126,
			"count":107337,
			"type":"VEC3"
		},
		{
			"bufferView":3,
			"componentType":5126,
			"count":107337,
			"type":"VEC2"
		},
		{
			"bufferView":4,
			"componentType":5125,
			"count":179766,
			"type":"SCALAR"
		}
	],
	"bufferViews":[
		{
			"buffer":0,
			"byteLength":858696,
			"byteOffset":0,
			"target":34962
		},
		{
			"buffer":0,
			"byteLength":1288044,
			"byteOffset":858696,
			"target":34962
		},
		{
			"buffer":0,
			"byteLength":1288044,
			"byteOffset":2146740,
			"target":34962
		},
		{
			"buffer":0,
			"byteLength":858696,
			"byteOffset":3434784,
			"target":34962
		},
		{
			"buffer":0,
			"byteLength":719064,
			"byteOffset":4293480,
			"target":34963
		}
	],
	"buffers":[
		{
			"byteLength":5012544,
			"uri":"Fries.bin"
		}
	]
}
